<?xml version="1.0" encoding="UTF-8" ?>
<svg version="1.1" width="32" height="32" xmlns="http://www.w3.org/2000/svg" shape-rendering="crispEdges">
<rect x="5" y="0" width="2" height="32" fill="#FFF1E8" />
<rect x="7" y="0" width="7" height="9" fill="#FF004D" />
<rect x="14" y="0" width="13" height="2" fill="#FFF1E8" />
<rect x="14" y="2" width="2" height="9" fill="#FFF1E8" />
<rect x="16" y="2" width="1" height="5" fill="#FF004D" />
<rect x="17" y="2" width="2" height="1" fill="#FFF1E8" />
<rect x="19" y="2" width="1" height="5" fill="#FF004D" />
<rect x="20" y="2" width="1" height="9" fill="#FFF1E8" />
<rect x="21" y="2" width="4" height="1" fill="#FF004D" />
<rect x="25" y="2" width="2" height="16" fill="#FFF1E8" />
<rect x="17" y="3" width="1" height="2" fill="#FF004D" />
<rect x="18" y="3" width="1" height="1" fill="#FFF1E8" />
<rect x="21" y="3" width="3" height="1" fill="#FFF1E8" />
<rect x="24" y="3" width="1" height="2" fill="#FF004D" />
<rect x="18" y="4" width="1" height="2" fill="#FF004D" />
<rect x="21" y="4" width="3" height="1" fill="#FF004D" />
<rect x="17" y="5" width="1" height="6" fill="#FFF1E8" />
<rect x="21" y="5" width="1" height="2" fill="#FF004D" />
<rect x="22" y="5" width="3" height="1" fill="#FFF1E8" />
<rect x="18" y="6" width="1" height="5" fill="#FFF1E8" />
<rect x="22" y="6" width="3" height="1" fill="#FF004D" />
<rect x="16" y="7" width="1" height="11" fill="#FFF1E8" />
<rect x="19" y="7" width="1" height="4" fill="#FFF1E8" />
<rect x="21" y="7" width="4" height="12" fill="#FFF1E8" />
<rect x="7" y="9" width="7" height="2" fill="#FFF1E8" />
<rect x="7" y="11" width="4" height="1" fill="#000000" />
<rect x="11" y="11" width="1" height="2" fill="#FFF1E8" />
<rect x="12" y="11" width="4" height="1" fill="#000000" />
<rect x="17" y="11" width="4" height="1" fill="#000000" />
<rect x="7" y="12" width="4" height="1" fill="#FFF1E8" />
<rect x="12" y="12" width="4" height="1" fill="#FFF1E8" />
<rect x="17" y="12" width="4" height="6" fill="#FFF1E8" />
<rect x="7" y="13" width="7" height="1" fill="#000000" />
<rect x="14" y="13" width="2" height="19" fill="#FFF1E8" />
<rect x="7" y="14" width="7" height="1" fill="#FFF1E8" />
<rect x="7" y="15" width="4" height="1" fill="#000000" />
<rect x="11" y="15" width="3" height="17" fill="#FFF1E8" />
<rect x="7" y="16" width="4" height="16" fill="#FFF1E8" />
<rect x="16" y="18" width="2" height="10" fill="#FF004D" />
<rect x="18" y="18" width="3" height="1" fill="#FFF1E8" />
<rect x="25" y="18" width="2" height="10" fill="#FF004D" />
<rect x="18" y="19" width="2" height="10" fill="#FF004D" />
<rect x="20" y="19" width="3" height="1" fill="#FFF1E8" />
<rect x="23" y="19" width="2" height="10" fill="#FF004D" />
<rect x="20" y="20" width="3" height="10" fill="#FF004D" />
<rect x="16" y="28" width="2" height="4" fill="#FFF1E8" />
<rect x="25" y="28" width="2" height="4" fill="#FFF1E8" />
<rect x="18" y="29" width="2" height="3" fill="#FFF1E8" />
<rect x="23" y="29" width="2" height="3" fill="#FFF1E8" />
<rect x="20" y="30" width="3" height="2" fill="#FFF1E8" />
</svg>