<?xml version="1.0" encoding="UTF-8" ?>
<svg version="1.1" width="32" height="32" xmlns="http://www.w3.org/2000/svg" shape-rendering="crispEdges">
<rect x="0" y="5" width="32" height="8" fill="#FFF1E8" />
<rect x="0" y="13" width="3" height="13" fill="#FFF1E8" />
<rect x="3" y="13" width="5" height="1" fill="#000000" />
<rect x="8" y="13" width="13" height="1" fill="#FFF1E8" />
<rect x="21" y="13" width="1" height="2" fill="#000000" />
<rect x="22" y="13" width="2" height="13" fill="#FFF1E8" />
<rect x="24" y="13" width="1" height="1" fill="#000000" />
<rect x="25" y="13" width="3" height="1" fill="#FFF1E8" />
<rect x="28" y="13" width="1" height="3" fill="#000000" />
<rect x="29" y="13" width="3" height="13" fill="#FFF1E8" />
<rect x="3" y="14" width="14" height="1" fill="#FFF1E8" />
<rect x="17" y="14" width="1" height="1" fill="#000000" />
<rect x="18" y="14" width="3" height="1" fill="#FFF1E8" />
<rect x="24" y="14" width="1" height="4" fill="#FFF1E8" />
<rect x="25" y="14" width="1" height="1" fill="#000000" />
<rect x="26" y="14" width="2" height="2" fill="#FFF1E8" />
<rect x="3" y="15" width="5" height="1" fill="#000000" />
<rect x="8" y="15" width="10" height="1" fill="#FFF1E8" />
<rect x="18" y="15" width="1" height="1" fill="#000000" />
<rect x="19" y="15" width="1" height="1" fill="#FFF1E8" />
<rect x="20" y="15" width="1" height="1" fill="#000000" />
<rect x="21" y="15" width="1" height="11" fill="#FFF1E8" />
<rect x="25" y="15" width="1" height="3" fill="#FFF1E8" />
<rect x="3" y="16" width="4" height="1" fill="#FFF1E8" />
<rect x="7" y="16" width="1" height="1" fill="#000000" />
<rect x="8" y="16" width="2" height="10" fill="#FFF1E8" />
<rect x="10" y="16" width="4" height="1" fill="#000000" />
<rect x="14" y="16" width="5" height="1" fill="#FFF1E8" />
<rect x="19" y="16" width="1" height="1" fill="#000000" />
<rect x="20" y="16" width="1" height="1" fill="#FFF1E8" />
<rect x="26" y="16" width="1" height="1" fill="#FFF1E8" />
<rect x="27" y="16" width="1" height="1" fill="#000000" />
<rect x="28" y="16" width="1" height="10" fill="#FFF1E8" />
<rect x="3" y="17" width="2" height="1" fill="#FFF1E8" />
<rect x="5" y="17" width="2" height="1" fill="#000000" />
<rect x="7" y="17" width="1" height="9" fill="#FFF1E8" />
<rect x="10" y="17" width="8" height="1" fill="#FFF1E8" />
<rect x="18" y="17" width="1" height="1" fill="#000000" />
<rect x="19" y="17" width="1" height="9" fill="#FFF1E8" />
<rect x="20" y="17" width="1" height="1" fill="#000000" />
<rect x="26" y="17" width="1" height="1" fill="#000000" />
<rect x="27" y="17" width="1" height="9" fill="#FFF1E8" />
<rect x="3" y="18" width="2" height="1" fill="#000000" />
<rect x="5" y="18" width="2" height="8" fill="#FFF1E8" />
<rect x="10" y="18" width="6" height="8" fill="#FFF1E8" />
<rect x="16" y="18" width="2" height="1" fill="#000000" />
<rect x="18" y="18" width="1" height="8" fill="#FFF1E8" />
<rect x="20" y="18" width="1" height="8" fill="#FFF1E8" />
<rect x="24" y="18" width="2" height="1" fill="#000000" />
<rect x="26" y="18" width="1" height="8" fill="#FFF1E8" />
<rect x="3" y="19" width="2" height="7" fill="#FFF1E8" />
<rect x="16" y="19" width="2" height="7" fill="#FFF1E8" />
<rect x="24" y="19" width="2" height="7" fill="#FFF1E8" />
</svg>